{"title":"King Arthur DIRECTORS CUT 2004 BDRip XVID AC3-TRiNiTY","uid":6776107,"size":2613083567,"categoryP":"video","categoryS":"movies","magnet":"?xt=urn:btih:07f042e2afc6d89c4bcbba96f478e7f12ffbd4e7&amp;dn=King+Arthur+DIRECTORS+CUT+2004+BDRip+XVID+AC3-TRiNiTY&amp;tr=udp%3A%2F%2Ftracker.openbittorrent.com%3A80&amp;tr=udp%3A%2F%2Fopen.demonii.com%3A1337&amp;tr=udp%3A%2F%2Ftracker.coppersurfer.tk%3A6969&amp;tr=udp%3A%2F%2Fexodus.desync.com%3A6969","seeders":0,"leechers":0,"uploader":"sceneline","files":4,"time":1319733274,"description":"- &lt;a href=&quot;\nhttp://www.Speed.Cd&quot; rel=&quot;nofollow&quot; target=&quot;_NEW&quot;&gt;\nhttp://www.Speed.Cd&lt;/a&gt;      fast  and The Hottest Private Tracker on the net\n\nPlease Seed back to make the speed Faster!!!\n\n------------------nfo--------------------------\n-\nooooooooooooo ooooooooo.    o8o  ooooo      ooo  o8o  ooooooooooooo oooooo   oooo \n8'   888   `8 `888   `Y88.  `&quot;'  `888b.     `8'  `&quot;'  8'   888   `8  `888.   .8'  \n     888       888   .d88' oooo   8 `88b.    8  oooo       888        `888. .8'   \n     888       888ooo88P'  `888   8   `88b.  8  `888       888         `888.8'    \n     888       888`88b.     888   8     `88b.8   888       888          `888'     \n     888       888  `88b.   888   8       `888   888       888           888      \n    o888o     o888o  o888o o888o o8o        `8  o888o     o888o         o888o  \n                                     ___________                    ______\n                              ______ ___  /__  /____  _____________ __  /\n                              _  __ `/_  /__  /__  / / /  ___/  __ `/  __/\n                              / /_/ /_  / _  / _  /_/ // /__ / /_/ // /\n                              \\__,_/ /_/  /_/  _\\__, / \\___/ \\__,_/ \\__/ \n                                               /____/\n\n\n\n\n\n\n\n\nEnCoDer:Allycat\n\n\n\nGeneral\nComplete name                    : King Arthur DIRECTORS CUT 2004 BDRip XVID AC3-TRiNiTY.avi\nFormat                           : AVI\nFormat/Info                      : Audio Video Interleave\nFormat profile                   : OpenDML\nFile size                        : 2.43 GiB\nDuration                         : 2h 21mn\nOverall bit rate                 : 2 460 Kbps\nWriting library                  : VirtualDub build 30091/release\n\nVideo\nID                               : 0\nFormat                           : MPEG-4 Visual\nFormat profile                   : Advanced Simple@L5\nFormat settings, BVOP            : 1\nFormat settings, QPel            : No\nFormat settings, GMC             : No warppoints\nFormat settings, Matrix          : Default (H.263)\nMuxing mode                      : Packed bitstream\nCodec ID                         : XVID\nCodec ID/Hint                    : XviD\nDuration                         : 2h 21mn\nBit rate                         : 2 000 Kbps\nWidth                            : 720 pixels\nHeight                           : 304 pixels\nDisplay aspect ratio             : 2.35:1\nFrame rate                       : 25.000 fps\nColor space                      : YUV\nChroma subsampling               : 4:2:0\nBit depth                        : 8 bits\nScan type                        : Progressive\nCompression mode                 : Lossy\nBits/(Pixel*Frame)               : 0.365\nStream size                      : 1.98 GiB (81%)\nWriting library                  : XviD 1.2.1 (UTC 2008-12-04)\n\nAudio\nID                               : 1\nFormat                           : AC-3\nFormat/Info                      : Audio Coding 3\nMode extension                   : CM (complete main)\nCodec ID                         : 2000\nDuration                         : 2h 21mn\nBit rate mode                    : Constant\nBit rate                         : 448 Kbps\nChannel(s)                       : 6 channels\nChannel positions                : Front: L C R, Side: L R, LFE\nSampling rate                    : 48.0 KHz\nBit depth                        : 16 bits\nCompression mode                 : Lossy\nStream size                      : 454 MiB (18%)\nAlignment                        : Aligned on interleaves\nInterleave, duration             : 40 ms (1.00 video frame)\nInterleave, preload duration     : 512 ms","torrent":{"xt":"urn:btih:07f042e2afc6d89c4bcbba96f478e7f12ffbd4e7","amp;dn":"King+Arthur+DIRECTORS+CUT+2004+BDRip+XVID+AC3-TRiNiTY","amp;tr":["udp%3A%2F%2Ftracker.openbittorrent.com%3A80","udp%3A%2F%2Fopen.demonii.com%3A1337","udp%3A%2F%2Ftracker.coppersurfer.tk%3A6969","udp%3A%2F%2Fexodus.desync.com%3A6969"],"infoHash":"07f042e2afc6d89c4bcbba96f478e7f12ffbd4e7","infoHashBuffer":{"type":"Buffer","data":[7,240,66,226,175,198,216,156,75,203,186,150,244,120,231,241,47,251,212,231]},"announce":[],"urlList":[]}}